<mxfile host="app.diagrams.net" modified="2020-12-09T07:17:11.256Z" agent="5.0 (Windows NT 10.0; Win64; x64) AppleWebKit/537.36 (KHTML, like Gecko) Chrome/86.0.4240.198 Safari/537.36" etag="vL6euvY40Evlf-XRBD5J" version="13.10.1" type="github">
  <diagram name="Page-1" id="c7558073-3199-34d8-9f00-42111426c3f3">
    <mxGraphModel dx="1386" dy="794" grid="0" gridSize="10" guides="1" tooltips="1" connect="1" arrows="1" fold="1" page="1" pageScale="1" pageWidth="1169" pageHeight="827" background="#ffffff" math="0" shadow="0">
      <root>
        <mxCell id="0" />
        <mxCell id="1" parent="0" />
        <mxCell id="1v4hyU_0CHuTicEXj352-96" value="Real-time Data" style="whiteSpace=wrap;align=center;verticalAlign=middle;fontStyle=1;strokeWidth=3;fillColor=#FFFFCC" parent="1" vertex="1">
          <mxGeometry x="73" y="187" width="110" height="60" as="geometry" />
        </mxCell>
        <mxCell id="1v4hyU_0CHuTicEXj352-98" value="&lt;p style=&quot;margin: 0px ; margin-top: 4px ; text-align: center ; text-decoration: underline&quot;&gt;&lt;strong&gt;&lt;br&gt;&lt;/strong&gt;&lt;/p&gt;&lt;hr&gt;&lt;p style=&quot;margin: 0px ; margin-left: 8px&quot;&gt;Lightweight&lt;/p&gt;&lt;p style=&quot;margin: 0px ; margin-left: 8px&quot;&gt;protocol&lt;/p&gt;&lt;p style=&quot;margin: 0px ; margin-left: 8px&quot;&gt;conversion&lt;/p&gt;&lt;p style=&quot;margin: 0px ; margin-left: 8px&quot;&gt;Layer&lt;/p&gt;&lt;p style=&quot;margin: 0px ; margin-left: 8px&quot;&gt;&lt;br&gt;&lt;/p&gt;" style="verticalAlign=middle;align=center;overflow=fill;fontSize=12;fontFamily=Helvetica;html=1;rounded=1;fontStyle=1;strokeWidth=3;fillColor=#E6FFCC;dashed=1;" parent="1" vertex="1">
          <mxGeometry x="213" y="208" width="93" height="115" as="geometry" />
        </mxCell>
        <mxCell id="1v4hyU_0CHuTicEXj352-100" value="Message Bus" style="shape=process;whiteSpace=wrap;align=center;verticalAlign=middle;size=0.0475;fontStyle=1;strokeWidth=3;fillColor=#FFCCCC;" parent="1" vertex="1">
          <mxGeometry x="414" y="445" width="464" height="30" as="geometry" />
        </mxCell>
        <mxCell id="1v4hyU_0CHuTicEXj352-105" value="&lt;b&gt;Historical Data&lt;/b&gt;" style="shape=note;whiteSpace=wrap;html=1;backgroundOutline=1;darkOpacity=0.05;strokeWidth=3;fillColor=#FFFFCC;" parent="1" vertex="1">
          <mxGeometry x="73" y="273" width="110" height="75" as="geometry" />
        </mxCell>
        <mxCell id="1v4hyU_0CHuTicEXj352-101" value="&lt;p style=&quot;margin: 0px ; margin-top: 4px ; text-align: center ; text-decoration: underline&quot;&gt;&lt;strong&gt;&lt;br&gt;&lt;/strong&gt;&lt;/p&gt;&lt;hr&gt;&lt;p style=&quot;margin: 0px ; margin-left: 8px&quot;&gt;Data&amp;nbsp;&lt;/p&gt;&lt;p style=&quot;margin: 0px ; margin-left: 8px&quot;&gt;Preprocessing&lt;/p&gt;" style="verticalAlign=middle;align=center;overflow=fill;fontSize=12;fontFamily=Helvetica;html=1;rounded=1;fontStyle=1;strokeWidth=3;fillColor=#dae8fc;strokeColor=#6c8ebf;" parent="1" vertex="1">
          <mxGeometry x="374" y="254" width="111.5" height="90" as="geometry" />
        </mxCell>
        <mxCell id="1v4hyU_0CHuTicEXj352-114" value="&lt;p style=&quot;margin: 0px ; margin-top: 4px ; text-align: center ; text-decoration: underline&quot;&gt;&lt;strong&gt;&lt;br&gt;&lt;/strong&gt;&lt;/p&gt;&lt;hr&gt;&lt;p style=&quot;margin: 0px ; margin-left: 8px&quot;&gt;Modularized&amp;nbsp;&lt;/p&gt;&lt;p style=&quot;margin: 0px ; margin-left: 8px&quot;&gt;Solution&lt;/p&gt;" style="verticalAlign=middle;align=center;overflow=fill;fontSize=12;fontFamily=Helvetica;html=1;rounded=1;fontStyle=1;strokeWidth=3;fillColor=#dae8fc;strokeColor=#6c8ebf;" parent="1" vertex="1">
          <mxGeometry x="524" y="254" width="111.5" height="91" as="geometry" />
        </mxCell>
        <mxCell id="1v4hyU_0CHuTicEXj352-123" value="" style="group;dashed=1;dashPattern=1 1;" parent="1" vertex="1" connectable="0">
          <mxGeometry x="399" y="678" width="380" height="120" as="geometry" />
        </mxCell>
        <mxCell id="1v4hyU_0CHuTicEXj352-121" value="" style="rounded=0;whiteSpace=wrap;html=1;strokeWidth=3;dashed=1;dashPattern=1 1;" parent="1v4hyU_0CHuTicEXj352-123" vertex="1">
          <mxGeometry width="380" height="120" as="geometry" />
        </mxCell>
        <mxCell id="1v4hyU_0CHuTicEXj352-106" value="&lt;b&gt;Relational database&lt;/b&gt;" style="shape=cylinder3;whiteSpace=wrap;html=1;boundedLbl=1;backgroundOutline=1;size=15;strokeWidth=3;fillColor=#FFFFCC;" parent="1v4hyU_0CHuTicEXj352-123" vertex="1">
          <mxGeometry x="31.49867374005305" y="20" width="70.55702917771883" height="80" as="geometry" />
        </mxCell>
        <mxCell id="1v4hyU_0CHuTicEXj352-111" value="&lt;b&gt;NoSQL&lt;/b&gt;" style="shape=cylinder3;whiteSpace=wrap;html=1;boundedLbl=1;backgroundOutline=1;size=15;strokeWidth=3;fillColor=#FFFFCC;" parent="1v4hyU_0CHuTicEXj352-123" vertex="1">
          <mxGeometry x="158.24933687002653" y="20" width="70.55702917771883" height="80" as="geometry" />
        </mxCell>
        <mxCell id="1v4hyU_0CHuTicEXj352-122" value="&lt;b&gt;DataLayer&lt;/b&gt;" style="shape=cylinder3;whiteSpace=wrap;html=1;boundedLbl=1;backgroundOutline=1;size=15;strokeWidth=3;fillColor=#FFFFCC;" parent="1v4hyU_0CHuTicEXj352-123" vertex="1">
          <mxGeometry x="279.2042440318302" y="20" width="70.55702917771883" height="80" as="geometry" />
        </mxCell>
        <mxCell id="1v4hyU_0CHuTicEXj352-126" value="&lt;p style=&quot;margin: 0px ; margin-top: 4px ; text-align: center ; text-decoration: underline&quot;&gt;Data Visualization&lt;/p&gt;&lt;p style=&quot;margin: 0px ; margin-top: 4px ; text-align: center ; text-decoration: underline&quot;&gt;Labeling&lt;/p&gt;&lt;p style=&quot;margin: 0px ; margin-top: 4px ; text-align: center ; text-decoration: underline&quot;&gt;Segmentation&lt;/p&gt;" style="verticalAlign=middle;align=center;overflow=fill;fontSize=12;fontFamily=Helvetica;html=1;rounded=1;fontStyle=1;strokeWidth=3;fillColor=#dae8fc;strokeColor=#6c8ebf;" parent="1" vertex="1">
          <mxGeometry x="374" y="187" width="262" height="59" as="geometry" />
        </mxCell>
        <mxCell id="1v4hyU_0CHuTicEXj352-129" value="&lt;b&gt;&lt;i&gt;Application&lt;/i&gt;&lt;/b&gt;" style="text;html=1;strokeColor=none;fillColor=none;align=center;verticalAlign=middle;whiteSpace=wrap;rounded=0;dashed=1;dashPattern=1 4;" parent="1" vertex="1">
          <mxGeometry x="383" y="546" width="172.5" height="20" as="geometry" />
        </mxCell>
        <mxCell id="O2RnvBktUuLIlnC_2o6k-7" value="" style="endArrow=classic;startArrow=classic;html=1;strokeWidth=2;strokeColor=none;" parent="1" source="1v4hyU_0CHuTicEXj352-105" target="1v4hyU_0CHuTicEXj352-101" edge="1">
          <mxGeometry width="50" height="50" relative="1" as="geometry">
            <mxPoint x="636" y="272" as="sourcePoint" />
            <mxPoint x="686" y="222" as="targetPoint" />
          </mxGeometry>
        </mxCell>
        <mxCell id="Ltf2Wpf82Mm3ao5a9Bto-1" value="" style="group" parent="1" vertex="1" connectable="0">
          <mxGeometry x="77" y="587" width="130" height="50" as="geometry" />
        </mxCell>
        <mxCell id="86zlqQ8TGqd8QCx5ZwGU-3" value="" style="endArrow=classic;html=1;" parent="Ltf2Wpf82Mm3ao5a9Bto-1" edge="1">
          <mxGeometry width="50" height="50" relative="1" as="geometry">
            <mxPoint y="40" as="sourcePoint" />
            <mxPoint x="80" y="40" as="targetPoint" />
          </mxGeometry>
        </mxCell>
        <mxCell id="86zlqQ8TGqd8QCx5ZwGU-4" value="" style="endArrow=classic;html=1;dashed=1;" parent="Ltf2Wpf82Mm3ao5a9Bto-1" edge="1">
          <mxGeometry width="50" height="50" relative="1" as="geometry">
            <mxPoint y="10" as="sourcePoint" />
            <mxPoint x="80" y="10" as="targetPoint" />
          </mxGeometry>
        </mxCell>
        <mxCell id="86zlqQ8TGqd8QCx5ZwGU-6" value="Future" style="text;html=1;strokeColor=none;fillColor=none;align=center;verticalAlign=middle;whiteSpace=wrap;rounded=0;" parent="Ltf2Wpf82Mm3ao5a9Bto-1" vertex="1">
          <mxGeometry x="90" width="40" height="20" as="geometry" />
        </mxCell>
        <mxCell id="86zlqQ8TGqd8QCx5ZwGU-7" value="Included" style="text;html=1;strokeColor=none;fillColor=none;align=center;verticalAlign=middle;whiteSpace=wrap;rounded=0;" parent="Ltf2Wpf82Mm3ao5a9Bto-1" vertex="1">
          <mxGeometry x="90" y="30" width="40" height="20" as="geometry" />
        </mxCell>
      </root>
    </mxGraphModel>
  </diagram>
</mxfile>
